<mxfile host="app.diagrams.net" modified="2020-11-27T09:05:48.737Z" agent="5.0 (Macintosh; Intel Mac OS X 10_15_7) AppleWebKit/537.36 (KHTML, like Gecko) Chrome/83.0.4103.106 Safari/537.36" etag="0Vih8DlgzvRGp7tcIuKm" version="13.10.1" type="github">
  <diagram name="Page-1" id="e7e014a7-5840-1c2e-5031-d8a46d1fe8dd">
    <mxGraphModel dx="946" dy="574" grid="1" gridSize="10" guides="1" tooltips="1" connect="1" arrows="1" fold="1" page="1" pageScale="1" pageWidth="1169" pageHeight="826" background="#ffffff" math="0" shadow="0">
      <root>
        <mxCell id="0" />
        <mxCell id="1" parent="0" />
        <mxCell id="2" value="圈人" style="swimlane;whiteSpace=wrap" parent="1" vertex="1">
          <mxGeometry x="230" y="128" width="214.5" height="302" as="geometry" />
        </mxCell>
        <mxCell id="Wkxa0QbtelDB-Q0z7keD-55" style="edgeStyle=orthogonalEdgeStyle;rounded=0;orthogonalLoop=1;jettySize=auto;html=1;entryX=0.5;entryY=0;entryDx=0;entryDy=0;" edge="1" parent="2" source="7" target="8">
          <mxGeometry relative="1" as="geometry" />
        </mxCell>
        <mxCell id="7" value="圈人平台" style="" parent="2" vertex="1">
          <mxGeometry x="60" y="111" width="110" height="50" as="geometry" />
        </mxCell>
        <mxCell id="8" value="圈人服务" style="" parent="2" vertex="1">
          <mxGeometry x="60" y="220" width="110" height="50" as="geometry" />
        </mxCell>
        <mxCell id="3" value="玩法" style="swimlane;whiteSpace=wrap" parent="1" vertex="1">
          <mxGeometry x="444.5" y="128" width="195.5" height="302" as="geometry" />
        </mxCell>
        <mxCell id="Wkxa0QbtelDB-Q0z7keD-56" style="edgeStyle=orthogonalEdgeStyle;rounded=0;orthogonalLoop=1;jettySize=auto;html=1;entryX=0.5;entryY=0;entryDx=0;entryDy=0;" edge="1" parent="3" source="15" target="16">
          <mxGeometry relative="1" as="geometry" />
        </mxCell>
        <mxCell id="15" value="玩法平台" style="" parent="3" vertex="1">
          <mxGeometry x="42.75" y="112" width="110" height="50" as="geometry" />
        </mxCell>
        <mxCell id="16" value="玩法服务" style="" parent="3" vertex="1">
          <mxGeometry x="42.75" y="220" width="110" height="50" as="geometry" />
        </mxCell>
        <mxCell id="4" value="资源下发" style="swimlane;whiteSpace=wrap" parent="1" vertex="1">
          <mxGeometry x="640" y="128" width="200" height="302" as="geometry" />
        </mxCell>
        <mxCell id="Wkxa0QbtelDB-Q0z7keD-57" style="edgeStyle=orthogonalEdgeStyle;rounded=0;orthogonalLoop=1;jettySize=auto;html=1;exitX=0.5;exitY=1;exitDx=0;exitDy=0;entryX=0.5;entryY=0;entryDx=0;entryDy=0;" edge="1" parent="4" source="Wkxa0QbtelDB-Q0z7keD-41" target="Wkxa0QbtelDB-Q0z7keD-42">
          <mxGeometry relative="1" as="geometry" />
        </mxCell>
        <mxCell id="Wkxa0QbtelDB-Q0z7keD-41" value="项目管理平台" style="" vertex="1" parent="4">
          <mxGeometry x="45" y="112" width="110" height="50" as="geometry" />
        </mxCell>
        <mxCell id="Wkxa0QbtelDB-Q0z7keD-42" value="资源下发服务" style="" vertex="1" parent="4">
          <mxGeometry x="45" y="220" width="110" height="50" as="geometry" />
        </mxCell>
        <mxCell id="Wkxa0QbtelDB-Q0z7keD-45" style="edgeStyle=orthogonalEdgeStyle;rounded=0;orthogonalLoop=1;jettySize=auto;html=1;entryX=0.5;entryY=0;entryDx=0;entryDy=0;" edge="1" parent="1" source="Wkxa0QbtelDB-Q0z7keD-44" target="7">
          <mxGeometry relative="1" as="geometry" />
        </mxCell>
        <mxCell id="Wkxa0QbtelDB-Q0z7keD-48" value="配置圈人条件项" style="edgeLabel;html=1;align=center;verticalAlign=middle;resizable=0;points=[];" vertex="1" connectable="0" parent="Wkxa0QbtelDB-Q0z7keD-45">
          <mxGeometry x="0.7273" y="1" relative="1" as="geometry">
            <mxPoint as="offset" />
          </mxGeometry>
        </mxCell>
        <mxCell id="Wkxa0QbtelDB-Q0z7keD-46" style="edgeStyle=orthogonalEdgeStyle;rounded=0;orthogonalLoop=1;jettySize=auto;html=1;entryX=0.5;entryY=0;entryDx=0;entryDy=0;" edge="1" parent="1" source="Wkxa0QbtelDB-Q0z7keD-44" target="15">
          <mxGeometry relative="1" as="geometry" />
        </mxCell>
        <mxCell id="Wkxa0QbtelDB-Q0z7keD-49" value="配置玩法" style="edgeLabel;html=1;align=center;verticalAlign=middle;resizable=0;points=[];" vertex="1" connectable="0" parent="Wkxa0QbtelDB-Q0z7keD-46">
          <mxGeometry x="0.8362" y="1" relative="1" as="geometry">
            <mxPoint as="offset" />
          </mxGeometry>
        </mxCell>
        <mxCell id="Wkxa0QbtelDB-Q0z7keD-47" style="edgeStyle=orthogonalEdgeStyle;rounded=0;orthogonalLoop=1;jettySize=auto;html=1;entryX=0.5;entryY=0;entryDx=0;entryDy=0;" edge="1" parent="1" source="Wkxa0QbtelDB-Q0z7keD-44" target="Wkxa0QbtelDB-Q0z7keD-41">
          <mxGeometry relative="1" as="geometry" />
        </mxCell>
        <mxCell id="Wkxa0QbtelDB-Q0z7keD-50" value="配置资源预算" style="edgeLabel;html=1;align=center;verticalAlign=middle;resizable=0;points=[];" vertex="1" connectable="0" parent="Wkxa0QbtelDB-Q0z7keD-47">
          <mxGeometry x="0.8848" y="1" relative="1" as="geometry">
            <mxPoint as="offset" />
          </mxGeometry>
        </mxCell>
        <mxCell id="Wkxa0QbtelDB-Q0z7keD-44" value="活动/任务开发人员" style="shape=umlActor;verticalLabelPosition=bottom;verticalAlign=top;html=1;outlineConnect=0;" vertex="1" parent="1">
          <mxGeometry x="170" y="140" width="30" height="60" as="geometry" />
        </mxCell>
        <mxCell id="Wkxa0QbtelDB-Q0z7keD-58" value="初始人群" style="edgeStyle=orthogonalEdgeStyle;rounded=0;orthogonalLoop=1;jettySize=auto;html=1;entryX=0;entryY=0.5;entryDx=0;entryDy=0;" edge="1" parent="1" source="8" target="16">
          <mxGeometry relative="1" as="geometry" />
        </mxCell>
        <mxCell id="Wkxa0QbtelDB-Q0z7keD-59" style="edgeStyle=orthogonalEdgeStyle;rounded=0;orthogonalLoop=1;jettySize=auto;html=1;entryX=0;entryY=0.5;entryDx=0;entryDy=0;" edge="1" parent="1" source="16" target="Wkxa0QbtelDB-Q0z7keD-42">
          <mxGeometry relative="1" as="geometry" />
        </mxCell>
        <mxCell id="Wkxa0QbtelDB-Q0z7keD-60" value="奖励人群" style="edgeLabel;html=1;align=center;verticalAlign=middle;resizable=0;points=[];" vertex="1" connectable="0" parent="Wkxa0QbtelDB-Q0z7keD-59">
          <mxGeometry x="0.0199" y="-1" relative="1" as="geometry">
            <mxPoint as="offset" />
          </mxGeometry>
        </mxCell>
      </root>
    </mxGraphModel>
  </diagram>
</mxfile>
